<mxfile host="app.diagrams.net" modified="2025-04-09T14:10:01.000Z" agent="Mozilla/5.0 (Windows NT 10.0; Win64; x64) AppleWebKit/537.36 (KHTML, like Gecko) Chrome/123.0.0.0 Safari/537.36" etag="yourEtagHere" version="22.1.7">
  <diagram id="prtHgNgQTEPvFCAcTncT" name="Azure High Scale Architecture">
    <mxGraphModel dx="1173" dy="657" grid="1" gridSize="10" guides="1" tooltips="1" connect="1" arrows="1" fold="1" page="1" pageScale="1" pageWidth="827" pageHeight="1169" math="0" shadow="0">
      <root>
        <mxCell id="0" />
        <mxCell id="1" parent="0" />
        <mxCell id="dNxyNK7c78bLwvsdeMH5-11" value="Azure High-Scale Architecture" style="swimlane;html=1;startSize=30;horizontal=1;containerType=tree;glass=0;fillColor=#dae8fc;strokeColor=#6c8ebf;" parent="1" vertex="1">
          <mxGeometry x="40" y="80" width="730" height="660" as="geometry" />
        </mxCell>
        
        <!-- Resource Group -->
        <mxCell id="resource-group" value="Resource Group" style="rounded=0;whiteSpace=wrap;html=1;fillColor=#f5f5f5;strokeColor=#666666;fontColor=#333333;dashed=1;verticalAlign=top;" vertex="1" parent="dNxyNK7c78bLwvsdeMH5-11">
          <mxGeometry x="30" y="50" width="680" height="590" as="geometry" />
        </mxCell>
        
        <!-- Virtual Network -->
        <mxCell id="vnet" value="Virtual Network" style="rounded=0;whiteSpace=wrap;html=1;fillColor=#d5e8d4;strokeColor=#82b366;verticalAlign=top;" vertex="1" parent="dNxyNK7c78bLwvsdeMH5-11">
          <mxGeometry x="50" y="90" width="640" height="530" as="geometry" />
        </mxCell>
        
        <!-- Subnets -->
        <mxCell id="subnet-1" value="Application Subnet" style="rounded=0;whiteSpace=wrap;html=1;fillColor=#e1d5e7;strokeColor=#9673a6;verticalAlign=top;" vertex="1" parent="dNxyNK7c78bLwvsdeMH5-11">
          <mxGeometry x="70" y="130" width="280" height="230" as="geometry" />
        </mxCell>
        
        <mxCell id="subnet-2" value="Database Subnet" style="rounded=0;whiteSpace=wrap;html=1;fillColor=#e1d5e7;strokeColor=#9673a6;verticalAlign=top;" vertex="1" parent="dNxyNK7c78bLwvsdeMH5-11">
          <mxGeometry x="390" y="130" width="280" height="230" as="geometry" />
        </mxCell>
        
        <mxCell id="subnet-3" value="Management Subnet" style="rounded=0;whiteSpace=wrap;html=1;fillColor=#e1d5e7;strokeColor=#9673a6;verticalAlign=top;" vertex="1" parent="dNxyNK7c78bLwvsdeMH5-11">
          <mxGeometry x="70" y="380" width="600" height="170" as="geometry" />
        </mxCell>
        
        <!-- VMSS -->
        <mxCell id="vmss" value="Virtual Machine Scale Set" style="rounded=1;whiteSpace=wrap;html=1;fillColor=#ffe6cc;strokeColor=#d79b00;verticalAlign=top;" vertex="1" parent="dNxyNK7c78bLwvsdeMH5-11">
          <mxGeometry x="90" y="170" width="240" height="170" as="geometry" />
        </mxCell>
        
        <!-- VMSS VMs -->
        <mxCell id="vm-1" value="VM Instance 1" style="aspect=fixed;html=1;points=[];align=center;image;fontSize=12;image=img/lib/azure2/compute/Virtual_Machine.svg;" vertex="1" parent="dNxyNK7c78bLwvsdeMH5-11">
          <mxGeometry x="110" y="220" width="54" height="50" as="geometry" />
        </mxCell>
        
        <mxCell id="vm-2" value="VM Instance 2" style="aspect=fixed;html=1;points=[];align=center;image;fontSize=12;image=img/lib/azure2/compute/Virtual_Machine.svg;" vertex="1" parent="dNxyNK7c78bLwvsdeMH5-11">
          <mxGeometry x="180" y="220" width="54" height="50" as="geometry" />
        </mxCell>
        
        <mxCell id="vm-3" value="VM Instance n" style="aspect=fixed;html=1;points=[];align=center;image;fontSize=12;image=img/lib/azure2/compute/Virtual_Machine.svg;" vertex="1" parent="dNxyNK7c78bLwvsdeMH5-11">
          <mxGeometry x="250" y="220" width="54" height="50" as="geometry" />
        </mxCell>
        
        <!-- Load Balancer -->
        <mxCell id="load-balancer" value="Load Balancer" style="aspect=fixed;html=1;points=[];align=center;image;fontSize=12;image=img/lib/azure2/networking/Load_Balancers.svg;" vertex="1" parent="dNxyNK7c78bLwvsdeMH5-11">
          <mxGeometry x="175" y="70" width="64" height="64" as="geometry" />
        </mxCell>
        
        <!-- Database -->
        <mxCell id="database" value="Azure SQL" style="aspect=fixed;html=1;points=[];align=center;image;fontSize=12;image=img/lib/azure2/databases/SQL_Database.svg;" vertex="1" parent="dNxyNK7c78bLwvsdeMH5-11">
          <mxGeometry x="500" y="215" width="48" height="64" as="geometry" />
        </mxCell>
        
        <!-- Management resources -->
        <mxCell id="log-analytics" value="Log Analytics" style="aspect=fixed;html=1;points=[];align=center;image;fontSize=12;image=img/lib/azure2/analytics/Log_Analytics_Workspaces.svg;" vertex="1" parent="dNxyNK7c78bLwvsdeMH5-11">
          <mxGeometry x="100" y="430" width="64" height="64" as="geometry" />
        </mxCell>
        
        <mxCell id="app-insights" value="Application Insights" style="aspect=fixed;html=1;points=[];align=center;image;fontSize=12;image=img/lib/azure2/devops/Application_Insights.svg;" vertex="1" parent="dNxyNK7c78bLwvsdeMH5-11">
          <mxGeometry x="220" y="430" width="64" height="64" as="geometry" />
        </mxCell>
        
        <mxCell id="update-manager" value="Azure Update Manager" style="aspect=fixed;html=1;points=[];align=center;image;fontSize=12;image=img/lib/azure2/management_governance/Maintenance_Configuration.svg;" vertex="1" parent="dNxyNK7c78bLwvsdeMH5-11">
          <mxGeometry x="340" y="430" width="68" height="64" as="geometry" />
        </mxCell>
        
        <mxCell id="key-vault" value="Key Vault" style="aspect=fixed;html=1;points=[];align=center;image;fontSize=12;image=img/lib/azure2/security/Key_Vaults.svg;" vertex="1" parent="dNxyNK7c78bLwvsdeMH5-11">
          <mxGeometry x="464" y="430" width="68" height="68" as="geometry" />
        </mxCell>
        
        <mxCell id="monitor" value="Azure Monitor" style="aspect=fixed;html=1;points=[];align=center;image;fontSize=12;image=img/lib/azure2/management_governance/Monitor.svg;" vertex="1" parent="dNxyNK7c78bLwvsdeMH5-11">
          <mxGeometry x="575" y="430" width="64" height="64" as="geometry" />
        </mxCell>
        
        <!-- Autoscale -->
        <mxCell id="autoscale" value="Autoscale" style="aspect=fixed;html=1;points=[];align=center;image;fontSize=12;image=img/lib/azure2/management_governance/Automanage.svg;" vertex="1" parent="dNxyNK7c78bLwvsdeMH5-11">
          <mxGeometry x="330" y="180" width="36" height="36" as="geometry" />
        </mxCell>
        
        <!-- Connections -->
        <mxCell id="conn-1" value="" style="endArrow=classic;html=1;rounded=0;exitX=0.5;exitY=1;exitDx=0;exitDy=0;entryX=0.5;entryY=0;entryDx=0;entryDy=0;" edge="1" parent="dNxyNK7c78bLwvsdeMH5-11" source="load-balancer" target="vmss">
          <mxGeometry width="50" height="50" relative="1" as="geometry">
            <mxPoint x="370" y="350" as="sourcePoint" />
            <mxPoint x="420" y="300" as="targetPoint" />
          </mxGeometry>
        </mxCell>
        
        <mxCell id="conn-2" value="" style="endArrow=classic;html=1;rounded=0;exitX=1;exitY=0.5;exitDx=0;exitDy=0;entryX=0;entryY=0.5;entryDx=0;entryDy=0;" edge="1" parent="dNxyNK7c78bLwvsdeMH5-11" source="vmss" target="database">
          <mxGeometry width="50" height="50" relative="1" as="geometry">
            <mxPoint x="370" y="350" as="sourcePoint" />
            <mxPoint x="420" y="300" as="targetPoint" />
          </mxGeometry>
        </mxCell>
        
        <mxCell id="conn-3" value="" style="endArrow=classic;html=1;rounded=0;exitX=0.25;exitY=1;exitDx=0;exitDy=0;entryX=0.5;entryY=0;entryDx=0;entryDy=0;" edge="1" parent="dNxyNK7c78bLwvsdeMH5-11" source="vmss" target="log-analytics">
          <mxGeometry width="50" height="50" relative="1" as="geometry">
            <mxPoint x="370" y="350" as="sourcePoint" />
            <mxPoint x="420" y="300" as="targetPoint" />
            <Array as="points">
              <mxPoint x="150" y="380" />
              <mxPoint x="132" y="380" />
            </Array>
          </mxGeometry>
        </mxCell>
        
        <mxCell id="conn-4" value="" style="endArrow=classic;html=1;rounded=0;exitX=0.5;exitY=1;exitDx=0;exitDy=0;entryX=0.5;entryY=0;entryDx=0;entryDy=0;" edge="1" parent="dNxyNK7c78bLwvsdeMH5-11" source="vmss" target="app-insights">
          <mxGeometry width="50" height="50" relative="1" as="geometry">
            <mxPoint x="370" y="350" as="sourcePoint" />
            <mxPoint x="420" y="300" as="targetPoint" />
            <Array as="points">
              <mxPoint x="210" y="380" />
              <mxPoint x="252" y="380" />
            </Array>
          </mxGeometry>
        </mxCell>
        
        <mxCell id="conn-5" value="" style="endArrow=classic;html=1;rounded=0;exitX=0.75;exitY=1;exitDx=0;exitDy=0;entryX=0.5;entryY=0;entryDx=0;entryDy=0;" edge="1" parent="dNxyNK7c78bLwvsdeMH5-11" source="vmss" target="update-manager">
          <mxGeometry width="50" height="50" relative="1" as="geometry">
            <mxPoint x="370" y="350" as="sourcePoint" />
            <mxPoint x="420" y="300" as="targetPoint" />
            <Array as="points">
              <mxPoint x="270" y="380" />
              <mxPoint x="374" y="380" />
            </Array>
          </mxGeometry>
        </mxCell>
        
        <mxCell id="conn-6" value="" style="endArrow=classic;html=1;rounded=0;exitX=0.25;exitY=1;exitDx=0;exitDy=0;entryX=0.5;entryY=0;entryDx=0;entryDy=0;" edge="1" parent="dNxyNK7c78bLwvsdeMH5-11" source="database" target="key-vault">
          <mxGeometry width="50" height="50" relative="1" as="geometry">
            <mxPoint x="370" y="350" as="sourcePoint" />
            <mxPoint x="420" y="300" as="targetPoint" />
            <Array as="points">
              <mxPoint x="512" y="380" />
              <mxPoint x="498" y="380" />
            </Array>
          </mxGeometry>
        </mxCell>
        
        <mxCell id="conn-7" value="" style="endArrow=classic;html=1;rounded=0;exitX=0.75;exitY=1;exitDx=0;exitDy=0;entryX=0.5;entryY=0;entryDx=0;entryDy=0;" edge="1" parent="dNxyNK7c78bLwvsdeMH5-11" source="database" target="monitor">
          <mxGeometry width="50" height="50" relative="1" as="geometry">
            <mxPoint x="370" y="350" as="sourcePoint" />
            <mxPoint x="420" y="300" as="targetPoint" />
            <Array as="points">
              <mxPoint x="536" y="380" />
              <mxPoint x="607" y="380" />
            </Array>
          </mxGeometry>
        </mxCell>
        
        <mxCell id="conn-autoscale" value="" style="endArrow=classic;html=1;rounded=0;exitX=0;exitY=0.5;exitDx=0;exitDy=0;entryX=1;entryY=0.25;entryDx=0;entryDy=0;" edge="1" parent="dNxyNK7c78bLwvsdeMH5-11" source="autoscale" target="vmss">
          <mxGeometry width="50" height="50" relative="1" as="geometry">
            <mxPoint x="370" y="350" as="sourcePoint" />
            <mxPoint x="420" y="300" as="targetPoint" />
          </mxGeometry>
        </mxCell>
      </root>
    </mxGraphModel>
  </diagram>
</mxfile>